<svg width="42" height="42" viewBox="0 0 42 42" fill="none" xmlns="http://www.w3.org/2000/svg">
<rect width="42" height="42" rx="21" fill="#737373"/>
<path d="M13 16C13 14.5858 13 13.8787 13.4393 13.4393C13.8787 13 14.5858 13 16 13C17.4142 13 18.1213 13 18.5607 13.4393C19 13.8787 19 14.5858 19 16V26C19 27.4142 19 28.1213 18.5607 28.5607C18.1213 29 17.4142 29 16 29C14.5858 29 13.8787 29 13.4393 28.5607C13 28.1213 13 27.4142 13 26V16Z" fill="white"/>
<path d="M23 16C23 14.5858 23 13.8787 23.4393 13.4393C23.8787 13 24.5858 13 26 13C27.4142 13 28.1213 13 28.5607 13.4393C29 13.8787 29 14.5858 29 16V26C29 27.4142 29 28.1213 28.5607 28.5607C28.1213 29 27.4142 29 26 29C24.5858 29 23.8787 29 23.4393 28.5607C23 28.1213 23 27.4142 23 26V16Z" fill="white"/>
</svg>
