<svg width="42" height="42" viewBox="0 0 42 42" fill="none" xmlns="http://www.w3.org/2000/svg">
<rect width="42" height="42" rx="21" fill="#737373"/>
<path d="M28.8906 21.846C28.5371 23.189 26.8667 24.138 23.5257 26.0361C20.296 27.8709 18.6812 28.7884 17.3798 28.4196C16.8418 28.2671 16.3516 27.9776 15.9562 27.5787C15 26.6139 15 24.7426 15 21C15 17.2574 15 15.3861 15.9562 14.4213C16.3516 14.0225 16.8418 13.7329 17.3798 13.5804C18.6812 13.2117 20.296 14.1291 23.5257 15.9639C26.8667 17.862 28.5371 18.811 28.8906 20.154C29.0365 20.7084 29.0365 21.2916 28.8906 21.846Z" fill="white"/>
</svg>
